<svg width="695" height="455" viewBox="0 0 695 455" fill="none" xmlns="http://www.w3.org/2000/svg">
<line y1="-1" x2="176.94" y2="-1" transform="matrix(-0.99999 0.00440739 -0.00355627 -0.999994 694.938 224)" stroke="#D6D6D6" stroke-width="2"/>
<line x1="175" y1="219" y2="219" stroke="#D6D6D6" stroke-width="2"/>
<path d="M202 286H40" stroke="#D6D6D6" stroke-width="2"/>
<path d="M655 282H498" stroke="#D6D6D6" stroke-width="2"/>
<path d="M199 161L40 161" stroke="#D6D6D6" stroke-width="2"/>
<path d="M654 157L488 157" stroke="#D6D6D6" stroke-width="2"/>
<g filter="url(#filter0_d_304_38)">
<line x1="423.372" y1="0.426107" x2="517.474" y2="225.803" stroke="#202021" stroke-width="2"/>
</g>
<g filter="url(#filter1_d_304_38)">
<line y1="-1" x2="243.998" y2="-1" transform="matrix(-0.387902 -0.9217 0.886642 -0.462455 269.142 442.991)" stroke="#202021" stroke-width="2"/>
</g>
<g filter="url(#filter2_d_304_38)">
<line x1="267.463" y1="1.39433" x2="173.919" y2="219.394" stroke="#202021" stroke-width="2"/>
</g>
<g filter="url(#filter3_d_304_38)">
<line x1="517.475" y1="225.158" x2="443.562" y2="445.785" stroke="#202021" stroke-width="2"/>
</g>
<path d="M332.047 199.922H361.578V181.734C361.578 180.234 361.547 179.016 361.484 178.078C361.422 177.141 361.297 176.375 361.109 175.781C360.953 175.156 360.703 174.672 360.359 174.328C360.016 173.953 359.562 173.609 359 173.297C357.625 172.547 356.203 172.172 354.734 172.172H352.484V170.438H379.719L379.672 172.172H377.422C376.828 172.172 376.203 172.234 375.547 172.359C374.891 172.484 374.266 172.688 373.672 172.969C373.078 173.25 372.547 173.609 372.078 174.047C371.641 174.453 371.312 174.953 371.094 175.547C370.75 176.578 370.578 178.641 370.578 181.734V222.75C370.578 224.25 370.609 225.469 370.672 226.406C370.734 227.344 370.844 228.125 371 228.75C371.188 229.344 371.438 229.812 371.75 230.156C372.094 230.5 372.547 230.828 373.109 231.141C374.453 231.891 375.891 232.266 377.422 232.266H379.672V234H352.484V232.266H354.734C357.297 232.266 359.188 231.5 360.406 229.969C361.188 229 361.578 226.594 361.578 222.75V203.391H332.047V222.75C332.047 224.25 332.078 225.469 332.141 226.406C332.203 227.344 332.312 228.109 332.469 228.703C332.656 229.297 332.922 229.781 333.266 230.156C333.609 230.5 334.062 230.828 334.625 231.141C335.969 231.891 337.391 232.266 338.891 232.266H341.188V234H313.953V232.266H316.203C318.859 232.266 320.766 231.5 321.922 229.969C322.672 229 323.047 226.594 323.047 222.75V181.734C323.047 180.234 323.016 179.016 322.953 178.078C322.891 177.141 322.766 176.375 322.578 175.781C322.422 175.156 322.172 174.672 321.828 174.328C321.516 173.953 321.078 173.609 320.516 173.297C319.141 172.547 317.703 172.172 316.203 172.172H313.953V170.438H341.188V172.172H338.891C338.266 172.172 337.625 172.234 336.969 172.359C336.344 172.484 335.734 172.688 335.141 172.969C334.578 173.25 334.062 173.609 333.594 174.047C333.156 174.453 332.828 174.953 332.609 175.547C332.234 176.547 332.047 178.609 332.047 181.734V199.922Z" fill="#01CF79"/>
<path d="M381.562 221.062V240.562H379.5C378.708 237.479 377.812 234.938 376.812 232.938C375.812 230.896 374.667 229.271 373.375 228.062C372.125 226.854 370.708 226 369.125 225.5C367.583 225 365.854 224.75 363.938 224.75C362.479 224.75 361.146 224.979 359.938 225.438C358.771 225.854 357.75 226.417 356.875 227.125C356.042 227.792 355.375 228.583 354.875 229.5C354.417 230.375 354.188 231.271 354.188 232.188C354.188 233.354 354.354 234.438 354.688 235.438C355.021 236.438 355.708 237.479 356.75 238.562C357.833 239.604 359.354 240.729 361.312 241.938C363.312 243.146 365.979 244.562 369.312 246.188C372.396 247.688 374.979 249.167 377.062 250.625C379.188 252.083 380.896 253.542 382.188 255C383.521 256.458 384.458 257.979 385 259.562C385.583 261.104 385.875 262.708 385.875 264.375C385.875 267 385.312 269.396 384.188 271.562C383.104 273.688 381.667 275.5 379.875 277C378.083 278.5 376.042 279.667 373.75 280.5C371.458 281.333 369.125 281.75 366.75 281.75C365 281.75 363.125 281.604 361.125 281.312C359.125 281.021 357 280.542 354.75 279.875C354.042 279.667 353.417 279.521 352.875 279.438C352.333 279.312 351.833 279.25 351.375 279.25C350.458 279.25 349.708 279.792 349.125 280.875H347.062V260.438H349.125C349.708 263.354 350.583 265.917 351.75 268.125C352.917 270.333 354.271 272.167 355.812 273.625C357.396 275.083 359.125 276.188 361 276.938C362.917 277.688 364.875 278.062 366.875 278.062C368.292 278.062 369.583 277.833 370.75 277.375C371.958 276.917 373 276.312 373.875 275.562C374.75 274.771 375.417 273.854 375.875 272.812C376.375 271.771 376.625 270.646 376.625 269.438C376.625 268.021 376.417 266.75 376 265.625C375.583 264.458 374.812 263.333 373.688 262.25C372.562 261.167 371.021 260.042 369.062 258.875C367.104 257.667 364.583 256.292 361.5 254.75C358.417 253.25 355.917 251.854 354 250.562C352.125 249.271 350.646 247.979 349.562 246.688C348.479 245.354 347.75 243.979 347.375 242.562C347 241.104 346.812 239.458 346.812 237.625C346.812 235.292 347.229 233.125 348.062 231.125C348.938 229.083 350.146 227.333 351.688 225.875C353.229 224.375 355.062 223.208 357.188 222.375C359.312 221.5 361.646 221.062 364.188 221.062C364.979 221.062 366 221.188 367.25 221.438C368.5 221.688 369.75 221.958 371 222.25C372.292 222.542 373.458 222.812 374.5 223.062C375.542 223.312 376.25 223.438 376.625 223.438C377.292 223.438 377.812 223.292 378.188 223C378.562 222.708 379 222.062 379.5 221.062H381.562Z" fill="#01CF79"/>
<defs>
<filter id="filter0_d_304_38" x="418.449" y="0.0408325" width="103.947" height="234.148" filterUnits="userSpaceOnUse" color-interpolation-filters="sRGB">
<feFlood flood-opacity="0" result="BackgroundImageFix"/>
<feColorMatrix in="SourceAlpha" type="matrix" values="0 0 0 0 0 0 0 0 0 0 0 0 0 0 0 0 0 0 127 0" result="hardAlpha"/>
<feOffset dy="4"/>
<feGaussianBlur stdDeviation="2"/>
<feComposite in2="hardAlpha" operator="out"/>
<feColorMatrix type="matrix" values="0 0 0 0 0 0 0 0 0 0 0 0 0 0 0 0 0 0 0.25 0"/>
<feBlend mode="normal" in2="BackgroundImageFix" result="effect1_dropShadow_304_38"/>
<feBlend mode="normal" in="SourceGraphic" in2="effect1_dropShadow_304_38" result="shape"/>
</filter>
<filter id="filter1_d_304_38" x="168.721" y="218.098" width="104.421" height="233.818" filterUnits="userSpaceOnUse" color-interpolation-filters="sRGB">
<feFlood flood-opacity="0" result="BackgroundImageFix"/>
<feColorMatrix in="SourceAlpha" type="matrix" values="0 0 0 0 0 0 0 0 0 0 0 0 0 0 0 0 0 0 127 0" result="hardAlpha"/>
<feOffset dy="4"/>
<feGaussianBlur stdDeviation="2"/>
<feComposite in2="hardAlpha" operator="out"/>
<feColorMatrix type="matrix" values="0 0 0 0 0 0 0 0 0 0 0 0 0 0 0 0 0 0 0.25 0"/>
<feBlend mode="normal" in2="BackgroundImageFix" result="effect1_dropShadow_304_38"/>
<feBlend mode="normal" in="SourceGraphic" in2="effect1_dropShadow_304_38" result="shape"/>
</filter>
<filter id="filter2_d_304_38" x="169" y="1" width="103.382" height="226.789" filterUnits="userSpaceOnUse" color-interpolation-filters="sRGB">
<feFlood flood-opacity="0" result="BackgroundImageFix"/>
<feColorMatrix in="SourceAlpha" type="matrix" values="0 0 0 0 0 0 0 0 0 0 0 0 0 0 0 0 0 0 127 0" result="hardAlpha"/>
<feOffset dy="4"/>
<feGaussianBlur stdDeviation="2"/>
<feComposite in2="hardAlpha" operator="out"/>
<feColorMatrix type="matrix" values="0 0 0 0 0 0 0 0 0 0 0 0 0 0 0 0 0 0 0.25 0"/>
<feBlend mode="normal" in2="BackgroundImageFix" result="effect1_dropShadow_304_38"/>
<feBlend mode="normal" in="SourceGraphic" in2="effect1_dropShadow_304_38" result="shape"/>
</filter>
<filter id="filter3_d_304_38" x="438.614" y="224.84" width="83.8086" height="229.263" filterUnits="userSpaceOnUse" color-interpolation-filters="sRGB">
<feFlood flood-opacity="0" result="BackgroundImageFix"/>
<feColorMatrix in="SourceAlpha" type="matrix" values="0 0 0 0 0 0 0 0 0 0 0 0 0 0 0 0 0 0 127 0" result="hardAlpha"/>
<feOffset dy="4"/>
<feGaussianBlur stdDeviation="2"/>
<feComposite in2="hardAlpha" operator="out"/>
<feColorMatrix type="matrix" values="0 0 0 0 0 0 0 0 0 0 0 0 0 0 0 0 0 0 0.25 0"/>
<feBlend mode="normal" in2="BackgroundImageFix" result="effect1_dropShadow_304_38"/>
<feBlend mode="normal" in="SourceGraphic" in2="effect1_dropShadow_304_38" result="shape"/>
</filter>
</defs>
</svg>
